<?xml version="1.0" encoding="UTF-8" standalone="no"?> <svg width="64" height="64" viewBox="0 0 64 64" fill="none" xmlns="http://www.w3.org/2000/svg">
<path d="M52 61H11C9.67392 61 8.40215 60.4732 7.46447 59.5355C6.52678 58.5979 6 57.3261 6 56V4C6 3.73478 6.10536 3.48043 6.29289 3.29289C6.48043 3.10536 6.73478 3 7 3H45C45.2652 3 45.5196 3.10536 45.7071 3.29289C45.8946 3.48043 46 3.73478 46 4V50.062" fill="#E2DA74"/>
<path d="M46 10H49.5C49.6326 10 49.7598 10.0527 49.8536 10.1464C49.9473 10.2402 50 10.3674 50 10.5V14H53.5C53.6326 14 53.7598 14.0527 53.8536 14.1464C53.9473 14.2402 54 14.3674 54 14.5V18H57.5C57.6326 18 57.7598 18.0527 57.8536 18.1464C57.9473 18.2402 58 18.3674 58 18.5V55C58 56.5913 57.3679 58.1174 56.2426 59.2426C55.1174 60.3679 53.5913 61 52 61C50.4087 61 48.8826 60.3679 47.7574 59.2426C46.6321 58.1174 46 56.5913 46 55V6" fill="#B2A966"/>
<path d="M50 13.9351V55.0001C50 55.5305 50.2107 56.0392 50.5858 56.4143C50.9609 56.7893 51.4696 57.0001 52 57.0001C52.5304 57.0001 53.0391 56.7893 53.4142 56.4143C53.7893 56.0392 54 55.5305 54 55.0001V14.5001C54 14.3674 53.9473 14.2403 53.8536 14.1465C53.7598 14.0527 53.6326 14.0001 53.5 14.0001H50" fill="#E2DA74"/>
<path d="M11 6H9V8H11V6Z" fill="#666666"/>
<path d="M43 6H13V8H43V6Z" fill="#666666"/>
<path d="M42 11H10V21H42V11Z" fill="#33A4DB"/>
<path d="M39 24H9V26H39V24Z" fill="#666666"/>
<path d="M22 29H10V37H22V29Z" fill="#33A4DB"/>
<path d="M42 39H30V47H42V39Z" fill="#33A4DB"/>
<path d="M29 30H25V32H29V30Z" fill="#666666"/>
<path d="M43 30H31V32H43V30Z" fill="#666666"/>
<path d="M43 34H25V36H43V34Z" fill="#666666"/>
<path d="M22 49H10V57H22V49Z" fill="#33A4DB"/>
<path d="M29 50H25V52H29V50Z" fill="#666666"/>
<path d="M43 50H31V52H43V50Z" fill="#666666"/>
<path d="M43 54H25V56H43V54Z" fill="#666666"/>
<path d="M13 40H9V42H13V40Z" fill="#666666"/>
<path d="M27 40H15V42H27V40Z" fill="#666666"/>
<path d="M27 44H9V46H27V44Z" fill="#666666"/>
<path d="M43 24H41V26H43V24Z" fill="#666666"/>
<path d="M42 11H38V21H42V11Z" fill="#0E84A8"/>
<path d="M42 39H40V47H42V39Z" fill="#0E84A8"/>
<path d="M22 29H20V37H22V29Z" fill="#0E84A8"/>
<path d="M22 49H20V57H22V49Z" fill="#0E84A8"/>
</svg>
